inDegrees=no
num_controls=7
num_derivatives=13
num_iterations=124
num_multipliers=7
num_parameters=0
num_slacks=7
num_states=26
objective=5.424575
objective_accelerations=0.394630
objective_balance=0.034144
objective_effort=0.181183
objective_height=4.722852
objective_ligament=0.091766
solver_duration=1387.518727
status=Solve_Succeeded
success=true
DataType=double
version=3
OpenSimVersion=4.4-2022-07-23-0e9fedc
endheader
time	/jointset/ground_pelvis/pelvis_tilt/value	/jointset/ground_pelvis/pelvis_tx/value	/jointset/ground_pelvis/pelvis_ty/value	/jointset/hip_l/hip_flexion_l/value	/jointset/hip_l/hip_adduction_l/value	/jointset/hip_l/hip_rotation_l/value	/jointset/back/lumbar_extension/value	/jointset/patellofemoral_l/patellar_flexion_l/value	/jointset/knee_l/knee_flexion_l/value	/jointset/knee_l/knee_adduction_l/value	/jointset/knee_l/knee_rotation_l/value	/jointset/ankle_l/ankle_angle_l/value	/jointset/subtalar_l/subtalar_angle_l/value	/jointset/ground_pelvis/pelvis_tilt/speed	/jointset/ground_pelvis/pelvis_tx/speed	/jointset/ground_pelvis/pelvis_ty/speed	/jointset/hip_l/hip_flexion_l/speed	/jointset/hip_l/hip_adduction_l/speed	/jointset/hip_l/hip_rotation_l/speed	/jointset/back/lumbar_extension/speed	/jointset/patellofemoral_l/patellar_flexion_l/speed	/jointset/knee_l/knee_flexion_l/speed	/jointset/knee_l/knee_adduction_l/speed	/jointset/knee_l/knee_rotation_l/speed	/jointset/ankle_l/ankle_angle_l/speed	/jointset/subtalar_l/subtalar_angle_l/speed	/forceset/tau_hip_flexion_l	/forceset/tau_hip_adduction_l	/forceset/tau_hip_rotation_l	/forceset/tau_knee_flexion_l	/forceset/tau_ankle_angle_l	/forceset/tau_subtalar_angle_l	/forceset/tau_lumbar_extension	lambda_cid13_p0	lambda_cid13_p1	lambda_cid13_p2	lambda_cid13_p3	lambda_cid13_p4	lambda_cid13_p5	lambda_cid14_p0	/jointset/ground_pelvis/pelvis_tilt/accel	/jointset/ground_pelvis/pelvis_tx/accel	/jointset/ground_pelvis/pelvis_ty/accel	/jointset/hip_l/hip_flexion_l/accel	/jointset/hip_l/hip_adduction_l/accel	/jointset/hip_l/hip_rotation_l/accel	/jointset/back/lumbar_extension/accel	/jointset/patellofemoral_l/patellar_flexion_l/accel	/jointset/knee_l/knee_flexion_l/accel	/jointset/knee_l/knee_adduction_l/accel	/jointset/knee_l/knee_rotation_l/accel	/jointset/ankle_l/ankle_angle_l/accel	/jointset/subtalar_l/subtalar_angle_l/accel	gamma_cid13_p0	gamma_cid13_p1	gamma_cid13_p2	gamma_cid13_p3	gamma_cid13_p4	gamma_cid13_p5	gamma_cid14_p0
0.5	-0.1437774005901419	0.06207900556499978	0.8158235054913273	0.6654314560433695	-0.4446187067250429	-0.2863539776515109	-0.2451790497955415	0.6983092863942789	0.6983092863938811	-0.1599332397653382	-0.1727778347114332	0.2152520228981547	0.02098925733470412	-0.2628937728635012	-0.001260929207910052	-0.3149305924184604	1.30643894867504	-0.2551656650477337	0.7071145599386902	-0.1576032632795134	1.674669449823971	1.67466944982398	0.01362490640034528	-0.015352770295374	0.7608197582332091	0.1304972412923635	-0.07964923664309738	0.03374461422717003	-0.01206578265513922	-0.2181568777897433	-0.02078477018693849	0.02823042372139905	0.1077715795654769	-39.79708007051447	-10.50468018388833	7.292616279232243	3.815313502978589	-532.6392991444002	-70.57498340355548	-30.63359535804705	0.1200667940838265	0.1543445387109001	-0.2874534615533532	-0.6425223903706089	0.5899677874233539	-0.178027541292968	0.826274977642442	-1.219187302795735	-1.219187302795752	-0.1348674085606221	0.08105785880872464	-0.508701775648732	0.484531747829214	-1.534637206257206e-07	-9.468589587984569e-07	3.423080576595783e-07	-1.640468095093759e-07	-1.08616136858162e-07	-5.847209146830075e-07	-1.395746835410527e-07
0.51	-0.1463997987926548	0.06207409493628457	0.812660495963324	0.6784613166200812	-0.4471411277450238	-0.2792934019843094	-0.2467140282218418	0.7149926420083673	0.7149926420082084	-0.1598043761070411	-0.1729283014712888	0.2228335294591025	0.02231754143392606	-0.2615579739878483	0.0002752581196757707	-0.3176052622054513	1.299352201823907	-0.2493055659420098	0.7048999813347052	-0.1493911994263857	1.661781435119835	1.661781435119918	0.01215320782907624	-0.01474139314438839	0.75537906827435	0.1351315432474665	-0.08213971638503016	0.03557618905520551	-0.01197958084917958	-0.2204818456515605	-0.02407279179983015	0.0284368856781713	0.1098432213450329	-40.92872495711753	-10.35514831086065	7.221881208750234	4.255730262692846	-534.6159527351288	-70.36667044646377	-29.86772571144389	0.1445269521222196	0.1526937165412053	-0.2475922384347836	-0.7688892558446149	0.5860075553849097	-0.258381887490533	0.8188554722980629	-1.356614957839221	-1.356614957828361	-0.1526290317760073	0.05112999418162609	-0.5771663229977081	0.4487740645831578	-1.641645725291657e-07	-8.842540977985284e-07	3.940285170793626e-07	-1.462566405692611e-07	-1.220462630053785e-07	-5.827200079154455e-07	-1.406919931434694e-07
0.52	-0.1490080009028344	0.0620844337581969	0.809472716037218	0.6914148820436227	-0.4496045524572827	-0.2722580138766949	-0.248166849332974	0.7315405161946631	0.7315405161947769	-0.1596900910244118	-0.1730726639895301	0.2303575463770542	0.0236913474817463	-0.2600545543995108	0.001788960917601368	-0.3198846720389016	1.291179918038402	-0.2433664035067175	0.7020770480291347	-0.1411718002472341	1.647573164271021	1.647573164271176	0.01070919124315559	-0.0141319219558783	0.7493218296357591	0.1396016310118576	-0.08463019612704339	0.03740776388304051	-0.01189337904253362	-0.2228068135135028	-0.02736081341281764	0.02864334763461286	0.1119148631246401	-42.06203742853013	-10.20544255623396	7.1512540490283	4.680972283741283	-536.6302555619318	-70.18295555850942	-29.108732795187	0.1535909366206955	0.1498476327789557	-0.2084014708451846	-0.859629777245276	0.605780453336986	-0.2996984816101488	0.8277420428472843	-1.483238531731621	-1.483238531731619	-0.1293310114910033	0.08067666631351701	-0.6320115115949805	0.4516889096868809	-1.504900163973332e-07	-8.053236470630266e-07	3.62284447735563e-07	-1.355442476868876e-07	-1.044842325390623e-07	-5.322403588630543e-07	-1.291877563343773e-07
0.53	-0.1516004143474133	0.06210976888116301	0.8062641384553305	0.7042814969367123	-0.4520081867446263	-0.2652537473118069	-0.2495374863374255	0.7479398294726446	0.7479398294726269	-0.1595900066891641	-0.1732107863561222	0.2378179681392375	0.02510905794228773	-0.2583993085204943	0.003272039449981041	-0.321761164831333	1.281962986410824	-0.2373522867027386	0.6986778867648304	-0.1329693905757768	1.632073012180047	1.632073012180235	0.009310291624569207	-0.0134915294465489	0.7426603803983923	0.143905331041136	-0.08698200846069609	0.03913718041248362	-0.01183644363486513	-0.2253135983918645	-0.03043398789951069	0.02876075229832686	0.1138629834647892	-43.13282527294765	-10.02121170302716	7.067360271255835	5.104019362899737	-538.6759416114483	-69.95703827986023	-28.35597000155067	0.1758195558920205	0.146608346335319	-0.1668403092527631	-0.9797316435228026	0.6004746706222936	-0.3748819361632229	0.8144219395869077	-1.61585079042904	-1.615850790423984	-0.1448729319318494	0.05593413932706191	-0.6985675140027181	0.4145229662701279	-1.39520803095865e-07	-7.403295233493788e-07	3.375500505532039e-07	-1.268298125457684e-07	-8.968524866246279e-08	-4.916321028336398e-07	-1.199409498475409e-07
0.54	-0.1541754097047183	0.06214974886602623	0.8030388825203562	0.7170505411559085	-0.4543514303885761	-0.2582864437570537	-0.2508265129431073	0.7641776517811678	0.7641776517810459	-0.1595038520489866	-0.1733424620784681	0.2452087042322025	0.0265687678864676	-0.2565709369474677	0.004717933297024112	-0.3232203426561523	1.271665783262906	-0.2312882748309699	0.694684446007611	-0.1248497204926237	1.615274970383121	1.615274970383343	0.007923252210403726	-0.01284259309384369	0.7353846957932156	0.148001527739286	-0.08933382079468268	0.04086659694178351	-0.01177950822667291	-0.2278203832703475	-0.03350716238625896	0.02887815696180855	0.1158111038047153	-44.20680920650665	-9.836091942728505	6.982949321191413	5.517258095570534	-540.7790630924651	-69.7558477610221	-27.60912165019671	0.1882160754226485	0.1424106957117136	-0.1249384773227885	-1.07568408131356	0.6157594668949411	-0.4185543801932773	0.8111941251864648	-1.742816472921981	-1.742816472921987	-0.1269589706068751	0.08238543498858261	-0.7548585851569175	0.4101882434611965	-1.315447350535231e-07	-6.907543146386338e-07	3.205710353366939e-07	-1.203258838417816e-07	-7.794325250214544e-08	-4.61945388021136e-07	-1.131917258449025e-07
0.55	-0.1567313330730234	0.06220401320472069	0.7998011351323364	0.7297113552540212	-0.4566338039772753	-0.2513619285437684	-0.2520346174115992	0.7802411498962638	0.7802411498961996	-0.1594314477625605	-0.1734675054826025	0.2525237290601196	0.02806842698033127	-0.2545857234500588	0.006130258369209474	-0.3242568985178677	1.260317625394588	-0.2251829444550395	0.6901231841987486	-0.1167788578440229	1.59721656742741	1.597216567427451	0.006558904014501314	-0.01216332670194355	0.7275261139943497	0.1518923478876096	-0.09168510710811008	0.04248525480191672	-0.01173159554579526	-0.2303326706683822	-0.03654470376224035	0.02899605165530214	0.117761695025461	-45.27038115727009	-9.652791260170968	6.898580098824652	5.915696161181779	-542.9016593914063	-69.57546113992379	-26.8681389414364	0.2078785054989046	0.1399186465750688	-0.08219298376748957	-1.191290471451502	0.6084602698548611	-0.4893122671069166	0.803879639011015	-1.868543086366993	-1.868543086394382	-0.1410611610731501	0.06116386973419892	-0.815512024931992	0.3729073450512123	-1.202740525496563e-07	-6.269720314362178e-07	2.95973902743517e-07	-1.112574464280999e-07	-6.51742948447218e-08	-4.209527398880446e-07	-1.039884475894192e-07
0.5600000000000001	-0.1592665634026195	0.06227225584085736	0.7965551864170649	0.7422533060071008	-0.4588550161728112	-0.2444859059857807	-0.253162243792734	0.7961178258059136	0.796117825805893	-0.1593726646415083	-0.1735856628970912	0.259757337260508	0.02960586996458662	-0.2524323292086822	0.007513592785464982	-0.3248606081063559	1.247893114251855	-0.2190559962025759	0.6849859149549207	-0.1087541030228397	1.577910529292841	1.5779105292927	0.005199019138953593	-0.01146539517231058	0.7191013702882588	0.1555583058172627	-0.09403639342149464	0.04410391266193504	-0.01168368286502203	-0.2328449580664155	-0.03958224513826934	0.0291139463486132	0.119712286246311	-46.33830406203344	-9.468529586749627	6.813830769112747	6.308057334324617	-545.0964796607327	-69.42098388270119	-26.13324995748902	0.2218522242161295	0.1366125645257987	-0.03836922267737085	-1.290954736196942	0.6200830422015432	-0.5337558671864612	0.8019725597029886	-1.992343508693693	-1.992343508693696	-0.1260663065359618	0.08611846253506061	-0.8680909666018691	0.365215799727088	-1.050498326919596e-07	-5.461412588437972e-07	2.622350292983403e-07	-9.911159856278435e-08	-5.117298339077061e-08	-3.663929717702488e-07	-9.184030423052237e-08
0.5700000000000001	-0.1617794925628012	0.06235415313816386	0.793305364607793	0.7546658700186819	-0.4610148211497429	-0.237664018204206	-0.2542099221342545	0.8117953776358221	0.8117953776358048	-0.159327300123333	-0.1736966081631052	0.2669039467028093	0.03117891202727122	-0.25012528035389	0.008858174583016786	-0.3250303693143268	1.23444839269547	-0.2129046994237295	0.6792953237450012	-0.1008043828172566	1.557402875035556	1.557402875035381	0.003878966021250963	-0.01072270249822433	0.7101293664093897	0.1590077317708612	-0.09623612257115748	0.0456516226117882	-0.01165294551188551	-0.235449236369712	-0.0424115610340209	0.02912959471424119	0.1215205904624477	-47.33987809421532	-9.242612106058486	6.712311039055614	6.695864798613873	-547.216624610278	-69.19656518925231	-25.40489084481962	0.2393656799411009	0.1322087253414754	0.004719444634753431	-1.396923662889272	0.612707489528025	-0.6012261996366199	0.7880491204553123	-2.109503638142709	-2.109503638147693	-0.1342757184277817	0.068527840604412	-0.9254512790937829	0.3285014586960891	-9.340099257539247e-08	-4.816533298160689e-07	2.373845084902999e-07	-8.925418503020483e-08	-4.045933830438795e-08	-3.240074711638522e-07	-8.242416453238043e-08
0.58	-0.1642685043416489	0.06244926180104023	0.7900560449893397	0.7669388482552624	-0.4631131022600937	-0.2309019394251425	-0.2551787877998026	0.8272619474723419	0.8272619474723631	-0.1592949963169871	-0.1738000898683562	0.2739580968701996	0.032785187442598	-0.2476488529458295	0.01015586589944005	-0.3247601699424842	1.219975959237942	-0.2067512228927643	0.6730241144653889	-0.09299156783288326	1.535714130622401	1.535714130622193	0.002586876741920298	-0.009972682993776131	0.7006095153079422	0.1622049763452476	-0.09843585172041827	0.0471993325614382	-0.01162220815758435	-0.2380535146730995	-0.04524087692988603	0.0291452430795013	0.1233288946790665	-48.34688412093656	-9.014980334220301	6.609646824287649	7.082129037175073	-549.4214636532065	-68.99655549224474	-24.68371446724401	0.2557279348698295	0.1272344683001398	0.0496228932853323	-1.49649711642552	0.620518992625279	-0.6498794811251318	0.7745915154611069	-2.228561539867532	-2.228561539867561	-0.1204735388615712	0.08758382860736345	-0.9776604111174872	0.3147795238846963	-8.640846095890086e-08	-4.384491040353814e-07	2.241095166980648e-07	-8.237705807049079e-08	-3.402730523158286e-08	-2.974768305723006e-07	-7.656598309010532e-08
0.59	-0.1667319534246617	0.06255713100359901	0.7868116414901072	0.7790620352963817	-0.4651498360106868	-0.2242054173448104	-0.2560700924105664	0.8425058114624613	0.8425058114626394	-0.1592754026271664	-0.1738959508065971	0.2809144078274111	0.03442220992314386	-0.245012797756591	0.01141227081667861	-0.3240450048560356	1.20448797623558	-0.2005978654443378	0.6661816084563521	-0.08528572702636086	1.51286704660333	1.51286704660324	0.001339304316124434	-0.009198806382459443	0.6905690033937083	0.1651558519679513	-0.1006262617287022	0.04861400824508044	-0.01159460814950067	-0.2406372223638102	-0.04801777034168225	0.02918194352991374	0.1251344725700417	-49.33502342577813	-8.801756862670397	6.511520163943258	7.437024825887751	-551.6069813790249	-68.83829477245172	-23.97053414386625	0.2717692227988781	0.1239722645439017	0.09378602177385065	-1.600969333416149	0.6123978344933007	-0.7162978689120635	0.7661244574957057	-2.341510326709287	-2.341510326691454	-0.1258345344424563	0.07242898443491663	-1.029817203684873	0.2787322806124753	-7.606377818756074e-08	-3.803135686733484e-07	2.035222379778999e-07	-7.293041665084931e-08	-2.609861567214741e-08	-2.591241089373309e-07	-6.831263919753155e-08
